#N canvas 190 106 802 731 10;
#X floatatom 430 120 5 0 0 0 - - - 0;
#X obj 450 411 unpack 0 0 0 0;
#X floatatom 450 436 3 0 0 0 - - - 0;
#X floatatom 477 436 3 0 0 0 - - - 0;
#X floatatom 504 436 3 0 0 0 - - - 0;
#X floatatom 531 436 3 0 0 0 - - - 0;
#X obj 50 211 adc~;
#X text 371 428 ltc out;
#X text 53 239 ltc in;
#X obj 417 378 smpte~;
#X obj 83 293 unpack 0 0 0 0;
#X floatatom 83 318 3 0 0 0 - - - 0;
#X floatatom 110 318 3 0 0 0 - - - 0;
#X floatatom 142 319 3 0 0 0 - - - 0;
#X floatatom 169 319 3 0 0 0 - - - 0;
#X obj 50 264 smpte~;
#X obj 123 375 change;
#X obj 123 435 vline~;
#X obj 101 486 *~;
#X obj 123 461 *~;
#X obj 55 444 osc~ 300;
#X msg 123 412 0.5 6 \, 0 50 300;
#X obj 101 511 dac~ 1;
#X text 564 602 2013 Matthias Kronlachner;
#X text 563 617 www.matthiaskronlachner.com;
#X text 427 102 set timecode in ms;
#X obj 450 522 unpack 0 0 0 0;
#X floatatom 450 547 3 0 0 0 - - - 0;
#X floatatom 477 547 3 0 0 0 - - - 0;
#X floatatom 504 547 3 0 0 0 - - - 0;
#X floatatom 531 547 3 0 0 0 - - - 0;
#X obj 417 493 smpte~;
#X text 328 463 to soundcard;
#X text 428 476 decode timecode;
#X text 560 546 h m s f;
#X text 557 436 h m s f;
#X text 94 277 hour minute second frame;
#X msg 609 193 fps \$1;
#X obj 609 126 vradio 15 1 0 4 empty empty empty 0 -8 0 10 #fcfcfc #000000 #000000 0;
#X text 629 124 24;
#X text 629 140 25;
#X text 628 156 29.97;
#X text 628 172 30;
#X msg 430 273 time \$1 \$2 \$3 \$4;
#X floatatom 425 229 3 0 0 0 - - - 0;
#X floatatom 450 229 3 0 0 0 - - - 0;
#X floatatom 475 229 3 0 0 0 - - - 0;
#X floatatom 499 229 3 0 0 0 - - - 0;
#X text 422 202 set full timecode;
#X obj 418 341 r \$0-smpte;
#X obj 609 221 s \$0-smpte;
#X obj 430 295 s \$0-smpte;
#X obj 430 176 s \$0-smpte;
#X msg 602 303 autoincrease \$1;
#X obj 602 325 s \$0-smpte;
#X obj 602 283 tgl 15 0 empty empty empty 17 7 0 10 #fcfcfc #000000 #000000 0 1;
#N canvas 323 139 250 193 pack-it 0;
#X obj 59 125 pack 0 0 0 0;
#X obj 59 147 outlet;
#X obj 51 33 inlet;
#X obj 90 33 inlet;
#X obj 90 55 t b f;
#X obj 131 33 inlet;
#X obj 131 55 t b f;
#X obj 174 34 inlet;
#X obj 174 56 t b f;
#X connect 0 0 1 0;
#X connect 2 0 0 0;
#X connect 3 0 4 0;
#X connect 4 0 0 0;
#X connect 4 1 0 1;
#X connect 5 0 6 0;
#X connect 6 0 0 0;
#X connect 6 1 0 2;
#X connect 7 0 8 0;
#X connect 8 0 0 0;
#X connect 8 1 0 3;
#X restore 430 251 pd pack-it;
#X text 431 213 h m s f;
#X text 621 283 default on (1);
#X text 598 264 AUTOINCREASE TIMECODE;
#X text 595 106 fps: Frames per second;
#X text 32 555 this object can be used as encoder AND decoder;
#X text 33 571 it will decode as soon as an audio signal is present at the input;
#X text 32 603 !! i recommend setting autoincrease to 0 if used as decoder !!, f 64;
#X obj 11 -5 cnv 15 380 100 empty empty empty 20 12 0 14 #e0e0e0 #404040 0;
#X text 62 27 using libltc library by Robin Gareus.;
#X text 460 378 generate (encode) timecode;
#X obj 118 216 loadbang;
#X msg 118 238 autoincrease 0;
#X obj 58 154 cnv 15 200 40 empty empty empty 20 12 0 14 #c4c4fc #404040 0;
#X text 88 158 :::::::INPUT:::::::;
#X text 124 172 (decode);
#X obj 458 59 cnv 15 200 40 empty empty empty 20 12 0 14 #00fc04 #404040 0;
#X text 493 62 :::::::OUTPUT:::::::;
#X text 502 79 (generate - encode);
#X text 6 393 produce a testsound every second;
#X text 62 44 based on the Max object by Mattijs Kneppers.;
#X obj 338 445 dac~ 1;
#X text 669 140 (default);
#X text 20 -2 smpte~ 0.2 - Pd external for generating or decoding ltc audio timecode;
#X text 32 62 v 0.1 (using flext) by Matthias Kronlachner.;
#X text 32 79 v 0.2 (using pdlibbuilder) by Jean-Yves Gratius.;
#X msg 430 146 ms \$1;
#X text 571 643 2022 Jean-Yves Gratius;
#X text 572 666 https://github.com/jyg/smpte-;
#X connect 0 0 82 0;
#X connect 1 0 2 0;
#X connect 1 1 3 0;
#X connect 1 2 4 0;
#X connect 1 3 5 0;
#X connect 6 0 15 0;
#X connect 9 0 31 0;
#X connect 9 0 77 0;
#X connect 9 1 1 0;
#X connect 10 0 11 0;
#X connect 10 1 12 0;
#X connect 10 2 13 0;
#X connect 10 2 16 0;
#X connect 10 3 14 0;
#X connect 15 1 10 0;
#X connect 16 0 21 0;
#X connect 17 0 19 0;
#X connect 17 0 19 1;
#X connect 18 0 22 0;
#X connect 19 0 18 1;
#X connect 20 0 18 0;
#X connect 21 0 17 0;
#X connect 26 0 27 0;
#X connect 26 1 28 0;
#X connect 26 2 29 0;
#X connect 26 3 30 0;
#X connect 31 1 26 0;
#X connect 37 0 50 0;
#X connect 38 0 37 0;
#X connect 43 0 51 0;
#X connect 44 0 56 0;
#X connect 45 0 56 1;
#X connect 46 0 56 2;
#X connect 47 0 56 3;
#X connect 49 0 9 0;
#X connect 53 0 54 0;
#X connect 55 0 53 0;
#X connect 56 0 43 0;
#X connect 67 0 68 0;
#X connect 68 0 15 0;
#X connect 82 0 52 0;
